<?xml version="1.0" encoding="UTF-8"?>
<svg width="91px" height="30px" viewBox="0 0 91 30" version="1.1" xmlns="http://www.w3.org/2000/svg" xmlns:xlink="http://www.w3.org/1999/xlink">
    <title>Group</title>
    <defs>
        <linearGradient x1="77.5918367%" y1="0%" x2="22.4081633%" y2="100%" id="linearGradient-1">
            <stop stop-color="#E50000" offset="0%"></stop>
            <stop stop-color="#FFAF00" offset="100%"></stop>
        </linearGradient>
    </defs>
    <g id="Page-1" stroke="none" stroke-width="1" fill="none" fill-rule="evenodd">
        <g id="LP-Copy" transform="translate(-180.000000, -15.000000)">
            <g id="Group" transform="translate(180.000000, 15.000000)">
                <path d="M4.24489796,0 C6.58929037,0 8.48979592,1.86548021 8.48979592,4.16666667 L8.48979592,25.8333333 C8.48979592,28.1345198 6.58929037,30 4.24489796,30 C1.90050555,30 0,28.1345198 0,25.8333333 L0,4.16666667 C0,1.86548021 1.90050555,0 4.24489796,0 Z M16.0510204,12.4778761 C12.6076941,12.4778761 9.81632653,9.68460839 9.81632653,6.23893805 C9.81632653,2.79326771 12.6076941,0 16.0510204,0 C19.4943468,0 22.2857143,2.79326771 22.2857143,6.23893805 C22.2857143,9.68460839 19.4943468,12.4778761 16.0510204,12.4778761 Z" id="Shape-Copy-2" fill="url(#linearGradient-1)"></path>
                <path d="M31.8367347,23.5121681 L31.8367347,6.86514044 C31.8367347,6.59195708 31.9402141,6.35292523 32.1471759,6.14803771 C32.3541377,5.94315019 32.6128377,5.84070796 32.9232789,5.84070796 L38.0455585,5.84070796 C42.1330546,5.84070796 44.176772,7.62491001 44.176772,11.1933676 C44.176772,12.5934324 43.8706455,13.7202968 43.2583834,14.5739948 C42.6461214,15.4276928 41.8225981,16.0081987 40.787789,16.31553 L44.176772,22.5389573 C44.263006,22.6414011 44.3061224,22.7779907 44.3061224,22.9487303 C44.3061224,23.3755793 44.0819172,23.7725429 43.6334999,24.139633 C43.1850826,24.5067232 42.7108022,24.6902655 42.2106444,24.6902655 C41.7104867,24.6902655 41.3224391,24.4256231 41.04649,23.8963303 L37.3729359,16.8277462 L35.1998476,16.8277462 L35.1998476,23.5121681 C35.1998476,23.8365734 35.0360053,24.0926789 34.7083157,24.2804925 C34.3806261,24.4683061 33.9839552,24.5622114 33.5182911,24.5622114 C33.0698738,24.5622114 32.6775146,24.4683061 32.3412016,24.2804925 C32.0048887,24.0926789 31.8367347,23.8365734 31.8367347,23.5121681 Z M35.0204082,14.0707965 L37.8446346,14.0707965 C39.6761119,14.0707965 40.5918367,13.1900042 40.5918367,11.4283934 C40.5918367,9.65016353 39.6761119,8.76106195 37.8446346,8.76106195 L35.0204082,8.76106195 L35.0204082,14.0707965 Z M49.6122449,23.3675532 L49.6122449,6.60666078 C49.6122449,6.26284588 49.7673454,6.00498857 50.077551,5.83308112 C50.3877567,5.66117367 50.7632631,5.57522124 51.2040816,5.57522124 C51.6449002,5.57522124 52.0204066,5.66117367 52.3306122,5.83308112 C52.6408179,6.00498857 52.7959184,6.26284588 52.7959184,6.60666078 L52.7959184,23.3675532 C52.7959184,23.6941774 52.6367363,23.9520347 52.3183673,24.1411329 C51.9999984,24.3302311 51.6285736,24.4247788 51.2040816,24.4247788 C50.7632631,24.4247788 50.3877567,24.3302311 50.077551,24.1411329 C49.7673454,23.9520347 49.6122449,23.6941774 49.6122449,23.3675532 Z M58.8979592,23.3675532 L58.8979592,7.25131049 C58.8979592,6.6840159 59.0561943,6.26284897 59.3726693,5.98779705 C59.6891443,5.71274514 60.0868704,5.57522124 60.5658595,5.57522124 C61.1988095,5.57522124 61.6863447,5.6869594 62.0284798,5.91043909 C62.3706149,6.13391877 62.7469579,6.61525241 63.15752,7.35445444 L66.3137006,13.1305158 L69.4698812,7.35445444 C69.8804433,6.61525241 70.2610629,6.13391877 70.6117514,5.91043909 C70.9624399,5.6869594 71.4542518,5.57522124 72.0872017,5.57522124 C72.5661909,5.57522124 72.963917,5.71274514 73.2803919,5.98779705 C73.5968669,6.26284897 73.755102,6.6840159 73.755102,7.25131049 L73.755102,23.3675532 C73.755102,23.6941774 73.5883137,23.9520347 73.2547319,24.1411329 C72.9211502,24.3302311 72.5319774,24.4247788 72.0872017,24.4247788 C71.6253193,24.4247788 71.2318698,24.3302311 70.9068415,24.1411329 C70.5818131,23.9520347 70.4193014,23.6941774 70.4193014,23.3675532 L70.4193014,12.2795782 L67.4170808,17.6430638 C67.1775862,18.0900232 66.8012433,18.3134995 66.2880406,18.3134995 C65.7919447,18.3134995 65.424155,18.0900232 65.1846604,17.6430638 L62.2337598,12.0732903 L62.2337598,23.3675532 C62.2337598,23.6941774 62.0669715,23.9520347 61.7333897,24.1411329 C61.399808,24.3302311 61.0106351,24.4247788 60.5658595,24.4247788 C60.1039771,24.4247788 59.7105276,24.3302311 59.3854993,24.1411329 C59.0604709,23.9520347 58.8979592,23.6941774 58.8979592,23.3675532 Z M79.0612245,18.8333473 L79.0612245,11.6976261 C79.0612245,9.66858173 79.6000338,8.18518498 80.6776685,7.24739136 C81.7553032,6.30959774 83.2020274,5.84070796 85.0178843,5.84070796 C86.8337413,5.84070796 88.284708,6.30959774 89.3708281,7.24739136 C90.4569481,8.18518498 91,9.66858173 91,11.6976261 L91,18.8333473 C91,20.8623917 90.4569481,22.3457885 89.3708281,23.2835821 C88.284708,24.2213757 86.8337413,24.6902655 85.0178843,24.6902655 C83.2020274,24.6902655 81.7553032,24.2213757 80.6776685,23.2835821 C79.6000338,22.3457885 79.0612245,20.8623917 79.0612245,18.8333473 Z M82.5102041,18.8307805 C82.5102041,20.790211 83.3903177,21.7699115 85.1505712,21.7699115 C86.9277503,21.7699115 87.8163265,20.790211 87.8163265,18.8307805 L87.8163265,11.700193 C87.8163265,9.7407625 86.9277503,8.76106195 85.1505712,8.76106195 C83.3903177,8.76106195 82.5102041,9.7407625 82.5102041,11.700193 L82.5102041,18.8307805 Z" id="RIMO" fill="#000000" fill-rule="nonzero"></path>
            </g>
        </g>
    </g>
</svg>